<svg id="圖層_1" data-name="圖層 1" xmlns="http://www.w3.org/2000/svg" viewBox="0 0 213.05 60"><defs><style>.cls-1{fill:#fff;}.cls-2{fill:#ffa538;}</style></defs><path class="cls-1" d="M88.44,45V39.88h3.92V19.8H88.44V14.68h15.2l6.66,17.76L117,14.68h15.5V19.8h-3.93V39.88h3.93V45H117.23V39.88h3.66V19.8h-.72L110.78,45h-3.27L98,19.8h-.72V39.88h4V45Z"/><path class="cls-1" d="M159.13,40.14V45H149V43.33a9.64,9.64,0,0,1-5.76,2,8.5,8.5,0,0,1-5.41-1.78,5.78,5.78,0,0,1-2.28-4.8,6.42,6.42,0,0,1,2.4-5.08,9.22,9.22,0,0,1,6.19-2.05A13.7,13.7,0,0,1,149,32.66V31.38a3.48,3.48,0,0,0-1.09-2.65,4.07,4.07,0,0,0-2.92-1,5.2,5.2,0,0,0-3.88,1.66l-5.43-1q2.36-5,10.22-5a15.79,15.79,0,0,1,5.06.68,7,7,0,0,1,3,1.78,6.43,6.43,0,0,1,1.38,2.39,15.59,15.59,0,0,1,.4,4.21v7.7ZM149,37.2a8.14,8.14,0,0,0-3.9-1.53,3.59,3.59,0,0,0-2.11.68,2.25,2.25,0,0,0-.94,2,2.81,2.81,0,0,0,.76,2,2.55,2.55,0,0,0,2,.83q1.88,0,4.23-2.2Z"/><path class="cls-1" d="M161.35,28.76V23.9h10v2a10.28,10.28,0,0,1,6.19-2.29q6.39,0,6.39,8.16v8.41h3.18V45h-9.92V32.23a4.15,4.15,0,0,0-.47-2.36,1.78,1.78,0,0,0-1.53-.63,6.75,6.75,0,0,0-3.84,1.37v9.53h3.25V45H161.35V40.14h3.22V28.76Z"/><path class="cls-1" d="M213.05,40.14V45H202.92V43.33a9.64,9.64,0,0,1-5.76,2,8.53,8.53,0,0,1-5.42-1.78,5.8,5.8,0,0,1-2.27-4.8,6.45,6.45,0,0,1,2.39-5.08,9.24,9.24,0,0,1,6.19-2.05,13.75,13.75,0,0,1,4.87,1.07V31.38a3.51,3.51,0,0,0-1.09-2.65,4.07,4.07,0,0,0-2.92-1A5.18,5.18,0,0,0,195,29.35l-5.43-1q2.35-5,10.22-5a15.83,15.83,0,0,1,5.06.68,7,7,0,0,1,3,1.78,6.33,6.33,0,0,1,1.39,2.39,15.59,15.59,0,0,1,.4,4.21v7.7ZM202.92,37.2A8.13,8.13,0,0,0,199,35.67a3.53,3.53,0,0,0-2.1.68,2.26,2.26,0,0,0-.95,2,2.81,2.81,0,0,0,.77,2,2.54,2.54,0,0,0,2,.83q1.88,0,4.23-2.2Z"/><circle class="cls-2" cx="10" cy="34" r="10"/><path class="cls-2" d="M42.53,60C53.11,59.75,61,55,65.79,45.84s4-18.14-2.12-26.58c-1.62-2.24-1.65-2.21.71-3.65a11.23,11.23,0,0,0,5.4-7A6.87,6.87,0,0,0,65.61.36c-3.27-1.13-6.48.44-8.1,4C57,5.5,56.56,6.71,56,7.86c-1.13,2.31-2.27,2.8-4.8,2a27.17,27.17,0,0,0-19,.63,25,25,0,0,0-8.61,6,5.75,5.75,0,0,0-.27,7.56,6.13,6.13,0,0,0,7.79,1.28A13.22,13.22,0,0,0,33,23.89a14.44,14.44,0,0,1,18.76-.07A13.79,13.79,0,0,1,53.63,42.9,14.33,14.33,0,0,1,35,46a30.28,30.28,0,0,1-3.09-2.31,6,6,0,0,0-7.55-.39,5.9,5.9,0,0,0-1.7,7.24c1.41,2.88,4.15,4.41,6.76,6A25,25,0,0,0,42.53,60Z"/></svg>